# xmcd CD database file
#
# Track frame offsets:
#	150
#	19059
#	36659
#	58099
#	74941
#	89189
#	107182
#	128336
#	144999
#	159600
#	174507
#	195199
#	215555
#
# Disc length: 3150 seconds
#
# Revision: 3
# Processed by: cddbd v1.5.1PL2 Copyright (c) Steve Scherf et al.
# Submitted via: CDex 1.51
#
DISCID=c40c4c0d
DTITLE=Ο Παντελής Θαλασσινός τραγουδάει Γιάννη Νικολάου - Οι άγγελοι του έρωτα
DYEAR=2005
DGENRE=ΕΛΛΗΝΙΚΑ
TTITLE0=Ποτέ μου δε μιλώ γι' αυτή
TTITLE1=Οι άγγελοι του έρωτα
TTITLE2=Του έρωτα
TTITLE3=Ένα μόνο με πειράζει
TTITLE4=Της μάνας η καρδιά
TTITLE5=Τ'αγρια πουλιά
TTITLE6=Του φεγγαριού
TTITLE7=Παραμύθι
TTITLE8=Μαράθηκε ο βασιλικός
TTITLE9=Γλυκοπαραμυθένια
TTITLE10=Το κρίνο
TTITLE11=Πικρό τραγούδι
TTITLE12=Τση πέρδικας
EXTD=YEAR: 2005
EXTT0=
EXTT1=
EXTT2=
EXTT3=
EXTT4=
EXTT5=
EXTT6=
EXTT7=
EXTT8=
EXTT9=
EXTT10=
EXTT11=
EXTT12=
PLAYORDER=
